<?xml version="1.0" encoding="UTF-8" standalone="no"?>
<!-- Created with Inkscape (http://www.inkscape.org/) -->

<svg
   xmlns:dc="http://purl.org/dc/elements/1.1/"
   xmlns:cc="http://creativecommons.org/ns#"
   xmlns:rdf="http://www.w3.org/1999/02/22-rdf-syntax-ns#"
   xmlns:svg="http://www.w3.org/2000/svg"
   xmlns="http://www.w3.org/2000/svg"
   xmlns:sodipodi="http://sodipodi.sourceforge.net/DTD/sodipodi-0.dtd"
   xmlns:inkscape="http://www.inkscape.org/namespaces/inkscape"
   width="300"
   height="400"
   viewBox="0 0 79.374998 105.83334"
   version="1.1"
   id="svg5396"
   inkscape:version="0.92.4 (5da689c313, 2019-01-14)"
   sodipodi:docname="splash.svg">
  <defs
     id="defs5390" />
  <sodipodi:namedview
     id="base"
     pagecolor="#0f0f0f"
     bordercolor="#666666"
     borderopacity="1.0"
     inkscape:pageopacity="0"
     inkscape:pageshadow="2"
     inkscape:zoom="0.98994949"
     inkscape:cx="234.07391"
     inkscape:cy="161.61481"
     inkscape:document-units="px"
     inkscape:current-layer="layer1"
     showgrid="false"
     units="px"
     inkscape:window-width="1866"
     inkscape:window-height="1025"
     inkscape:window-x="54"
     inkscape:window-y="27"
     inkscape:window-maximized="1"
     inkscape:pagecheckerboard="false" />
  <metadata
     id="metadata5393">
    <rdf:RDF>
      <cc:Work
         rdf:about="">
        <dc:format>image/svg+xml</dc:format>
        <dc:type
           rdf:resource="http://purl.org/dc/dcmitype/StillImage" />
        <dc:title></dc:title>
      </cc:Work>
    </rdf:RDF>
  </metadata>
  <g
     inkscape:label="Layer 1"
     inkscape:groupmode="layer"
     id="layer1"
     transform="translate(0,-191.16665)">
    <path
       style="opacity:0.11199999;fill:#ffffff;stroke:#000000;stroke-width:0.99999994"
       d="M 173.2207 37.947266 L 173.2207 37.949219 C 166.83062 37.949219 160.81275 39.677522 155.61719 42.753906 C 151.71415 41.394939 147.00134 40.060547 143.50586 40.060547 C 141.87352 40.060547 140.50059 40.323061 139.31055 40.865234 C 137.40106 41.735093 136.05958 43.299856 135.5332 45.271484 C 134.93541 47.510968 134.77695 51.382437 138.88867 61.529297 C 139.13774 62.143735 139.38755 62.74657 139.63672 63.333984 C 139.31535 64.388019 139.03624 65.465291 138.80273 66.564453 C 137.86925 70.959023 138.56274 80.669438 138.9043 84.640625 C 139.71631 94.087063 141.29878 104.26151 143.35938 113.28906 C 145.3068 121.82082 147.65082 129.3392 150.35156 135.74414 C 148.13252 134.2363 145.74301 132.91115 143.19531 131.78516 C 138.45553 129.69032 133.37813 128.36487 128.10742 127.84375 C 127.5131 127.78555 126.91121 127.74243 126.30664 127.71484 L 125.79492 125.1582 C 125.72474 124.80822 125.61595 124.46818 125.4707 124.14258 L 121.67188 115.625 C 121.06953 114.2742 119.88327 113.27921 118.45703 112.93164 L 110.77734 111.06055 C 110.40824 110.97097 110.03476 110.92773 109.66406 110.92773 C 108.422 110.92773 107.21119 111.42115 106.31055 112.32812 L 103.06836 115.59375 C 101.87297 116.79753 101.40065 118.55194 101.82812 120.20117 L 102.74609 123.74414 C 103.30274 125.89231 105.22154 127.32617 107.33398 127.32617 C 107.68295 127.32617 108.03655 127.28672 108.39062 127.20508 L 109.50391 126.94922 L 112.66797 129.46875 L 112.73438 129.69922 C 108.64494 131.08612 104.72075 133.16339 101.16992 135.86133 C 97.572896 138.59408 94.460056 141.87754 91.917969 145.62305 C 89.223566 149.59302 87.22209 154.01206 85.96875 158.75586 C 85.082553 162.10985 84.763503 167.00492 85.117188 171.85156 C 85.415506 175.93821 86.321916 181.85157 88.945312 186.80664 C 92.338123 193.21581 97.869439 198.10086 103.44727 201.38867 C 97.212814 204.96101 91.810386 209.51931 87.771484 214.82422 C 84.100293 219.64629 79.809706 229.36449 77.650391 237.30664 C 67.151506 235.72075 56.378035 233.76608 54.128906 232.79297 C 53.134902 232.3601 49.553633 229.39414 45.402344 224.19336 C 41.143444 218.85795 39.069097 214.5983 38.902344 212.74414 C 38.892895 212.61715 38.858203 211.37342 40.558594 207.33594 C 41.827755 204.32267 43.609727 200.78286 45.498047 197.03516 C 49.865741 188.36613 54.383742 179.40146 54.666016 172.8125 C 55.327112 157.38356 41.89921 149.26668 36.166016 145.80078 L 23.875 138.36914 L 29.339844 151.74219 C 29.719841 152.6724 30.288545 153.74205 31.009766 155.09766 C 33.144552 159.1094 37.119739 166.57688 35.464844 171.0332 C 34.674185 173.16202 31.174199 177.60926 27.791016 181.9082 C 23.987681 186.74108 19.677696 192.21868 16.048828 198.06641 C 11.625745 205.19403 9.1534725 211.41665 8.4921875 217.0918 C 7.9305988 221.91304 8.7065573 227.90239 10.798828 234.89062 C 12.674286 241.15462 15.561161 247.98633 19.144531 254.65039 C 22.766279 261.38592 26.978653 267.71751 31.326172 272.95703 C 36.203032 278.8345 41.073434 283.17544 45.802734 285.86133 C 51.545428 289.12264 58.069117 292.56694 66.849609 295.66211 C 72.874494 297.78601 79.149709 299.45149 85.791016 300.68555 C 85.721699 301.21566 85.651764 301.74149 85.582031 302.27539 C 85.105898 305.91901 84.630449 309.75372 84.013672 313.64062 C 83.703486 315.58247 83.356865 317.53726 82.9375 319.46875 C 82.517545 321.39741 82.025947 323.31043 81.394531 325.09766 C 80.919184 326.4429 81.541813 327.91424 82.792969 328.51367 L 82.867188 328.54883 C 83.223635 328.71815 83.526218 328.83319 83.816406 328.9375 C 84.105805 329.04068 84.380008 329.12848 84.648438 329.20898 C 85.184707 329.36961 85.699417 329.50243 86.208984 329.625 C 87.226331 329.86802 88.222223 330.06745 89.214844 330.25 C 91.197712 330.61208 93.161957 330.9022 95.121094 331.1543 C 99.03995 331.65164 102.91151 332.0105 106.74609 332.1875 C 107.60678 332.2253 108.47723 332.25303 109.36719 332.26172 C 110.21792 332.26928 111.07591 332.26095 112.00977 332.20312 C 112.27373 332.24924 112.54307 332.27344 112.81445 332.27344 C 112.87285 332.27344 112.92993 332.27447 112.98828 332.27148 L 117.58984 332.09961 C 118.62665 332.06106 119.57639 331.68929 120.33789 331.08789 C 120.65904 331.1563 120.98866 331.19141 121.32031 331.19141 C 121.55808 331.19141 121.79659 331.17262 122.03516 331.13672 L 127.01367 330.37109 C 128.37284 330.16209 129.57548 329.36859 130.31055 328.19531 C 130.82146 327.3798 131.0705 326.43599 131.04297 325.49023 C 133.1122 325.14441 135.21737 324.66057 137.27148 323.99609 C 137.57933 324.05846 137.89141 324.0918 138.20508 324.0918 C 138.84578 324.0918 139.48883 323.96213 140.09375 323.69727 L 143.26367 322.30859 C 144.32929 321.84201 145.14904 321.01618 145.63281 320.02148 L 145.68164 319.99219 L 145.67969 319.92188 C 146.08826 319.03146 146.23138 318.0134 146.03516 316.99414 L 145.25781 312.96094 C 145.14201 312.35935 144.91468 311.79439 144.59375 311.28906 C 144.05877 308.587 143.3343 305.25597 142.52344 301.7793 C 145.5017 301.5015 148.59078 301.16996 151.75977 300.77148 C 152.29173 300.70459 152.8132 300.63362 153.33984 300.56445 C 153.30091 301.22224 153.26303 301.87809 153.2207 302.54102 C 152.99507 306.048 152.72996 309.71658 152.29297 313.43945 C 151.85144 317.15643 151.24724 320.94599 150.23047 324.55469 C 149.86348 325.85757 150.50336 327.20788 151.68359 327.75977 L 151.75 327.79102 C 152.1634 327.98453 152.50286 328.10523 152.83398 328.2168 C 153.16167 328.32527 153.47155 328.41446 153.77539 328.49609 C 154.38193 328.65824 154.96381 328.78772 155.54102 328.90625 C 156.69347 329.14058 157.82247 329.32373 158.94922 329.48633 C 161.19993 329.80834 163.43381 330.04215 165.66211 330.22852 C 167.8901 330.41258 170.10974 330.54689 172.32031 330.62305 C 174.53697 330.69372 176.7198 330.72497 178.98438 330.60742 C 179.1314 330.59986 179.27975 330.58751 179.42969 330.57617 C 179.82779 330.68389 180.2415 330.74023 180.66016 330.74023 C 180.78677 330.74023 180.9156 330.73412 181.04297 330.72656 L 186.7793 330.25977 C 187.63426 330.19022 188.44438 329.89024 189.13086 329.40234 C 189.40374 329.45072 189.68081 329.47656 189.95898 329.47656 C 190.50516 329.47656 191.0535 329.38139 191.58203 329.1875 L 196.56055 327.35742 C 197.75968 326.91639 198.73241 326.00573 199.25977 324.83203 C 199.78675 323.65837 199.823 322.32039 199.36133 321.11914 L 197.64844 316.6582 C 197.41902 316.06017 197.07416 315.52137 196.64258 315.06836 C 196.48157 314.17291 196.31833 313.28281 196.1543 312.39258 L 196.38672 312.50977 L 197.36523 312.56641 C 198.45003 312.62952 199.33632 312.6582 200.15625 312.6582 C 206.98911 312.6582 211.7629 310.40057 218.39453 304.02734 L 218.61914 303.81055 L 218.8125 303.56836 C 221.62658 300.05215 223.31374 295.6899 224.06836 293.40234 C 224.39491 292.41264 224.72457 291.28032 224.99023 290.10156 C 225.658 289.42763 226.12182 288.55787 226.30078 287.59375 L 226.9375 284.16602 C 227.34796 281.95529 226.18038 279.75428 224.13086 278.87305 L 220.38672 277.26367 C 219.79227 277.0078 219.15992 276.87891 218.52734 276.87891 C 218.20986 276.87891 217.89272 276.91307 217.58008 276.97656 C 213.65991 274.38294 210.68158 272.02822 208.24023 269.77539 C 209.52289 266.59719 210.63701 263.20425 211.57422 259.60156 C 214.34257 248.95936 214.97289 238.92414 215.01367 232.37891 C 215.17279 206.72759 208.09895 182.54087 202.13867 166.76758 C 201.26107 164.4451 200.36602 162.1931 199.46094 160.01953 C 200.63633 159.65934 201.81892 159.26103 203.00781 158.82227 C 208.92119 156.63993 214.93195 153.4708 220.39258 149.6582 C 225.70145 145.95124 230.48062 141.65013 234.21094 137.21875 C 238.2463 132.42484 240.95383 127.66786 242.25977 123.08008 C 243.74811 117.85095 242.4173 110.81013 238.19141 101.55664 C 234.87151 94.287627 229.78415 85.785733 223.48047 76.970703 C 222.3855 75.439541 221.26285 73.913071 220.12109 72.400391 C 220.59833 70.807773 220.85878 69.126938 220.89453 67.378906 C 220.99771 62.346352 219.22896 57.249983 215.91602 53.027344 C 213.83603 50.376043 211.22008 48.19656 208.34961 46.728516 C 205.50646 45.274229 202.40593 44.505859 199.38477 44.505859 C 197.81252 44.505859 196.28269 44.711844 194.82031 45.109375 C 192.62728 43.422836 190.65316 42.180158 188.91602 41.404297 C 183.77903 39.109519 178.49768 37.947266 173.2207 37.947266 z M 167.16992 163.52344 C 171.39396 174.70241 173.15365 185.0037 173.82422 192.83594 C 173.90208 193.74888 173.96233 194.63329 174.01562 195.50391 C 174.01185 197.86675 174.11103 200.44465 174.21875 202.95312 C 174.20741 204.46875 174.16311 205.87989 174.09961 207.15234 C 169.27259 203.51791 162.54665 199.01658 155.90039 196.42383 C 155.86637 196.40871 155.83007 196.39604 155.79492 196.38281 C 156.336 195.82511 156.86415 195.2482 157.37695 194.64453 C 157.58521 194.72239 157.79539 194.79777 158.00977 194.87109 L 158.15039 194.91992 L 158.92969 194.80273 C 160.08985 194.63001 161.29251 194.37257 162.48828 194.06836 L 163.24219 193.87695 L 163.82617 192.9668 C 164.55929 191.82213 165.24907 190.63986 165.88086 189.50195 L 165.99805 189.28906 L 166.21289 188.90234 L 166.28125 188.47656 C 166.51634 187.02027 166.72531 185.48235 166.85352 183.96094 L 166.91016 183.27344 L 166.80469 182.97266 C 166.40217 181.83456 165.95659 180.72885 165.4668 179.70898 L 165.44727 179.66992 C 166.44816 176.42002 167.06855 173.09418 167.26758 169.83789 C 167.39873 167.69327 167.36495 165.58687 167.16992 163.52344 z M 104.26367 235.99414 L 113.51758 235.99414 C 115.36609 235.99414 116.95112 236.21603 118.27148 236.66016 C 119.60385 237.09228 120.69659 237.69273 121.54883 238.46094 C 122.41307 239.22915 123.04892 240.1354 123.45703 241.17969 C 123.86514 242.22398 124.06836 243.35212 124.06836 244.56445 C 124.06836 245.87281 123.85957 247.07371 123.43945 248.16602 C 123.01934 249.25832 122.37596 250.19439 121.51172 250.97461 C 120.64748 251.75482 119.54916 252.36642 118.2168 252.81055 C 116.89643 253.24267 115.33008 253.45898 113.51758 253.45898 L 110.34961 253.45898 L 110.34961 262.22656 L 104.26367 262.22656 L 104.26367 235.99414 z M 127.19141 235.99414 L 133.27734 235.99414 L 133.27734 257.36523 L 143 257.36523 L 143 262.22656 L 127.19141 262.22656 L 127.19141 235.99414 z M 153.25977 235.99414 L 159.48828 235.99414 L 169.64258 262.22656 L 164.92578 262.22656 C 164.39764 262.22656 163.97253 262.10725 163.64844 261.86719 C 163.32435 261.61512 163.0782 261.29622 162.91016 260.91211 L 161.36133 256.33984 L 151.38672 256.33984 L 149.83789 260.91211 C 149.70585 261.2482 149.46528 261.554 149.11719 261.83008 C 148.78109 262.09415 148.36156 262.22656 147.85742 262.22656 L 143.10352 262.22656 L 153.25977 235.99414 z M 165.80273 235.99414 L 171.16797 235.99414 C 171.69611 235.99414 172.11203 236.11902 172.41211 236.37109 C 172.7242 236.61116 172.98149 236.92449 173.18555 237.30859 L 176.89453 244.94141 C 177.20662 245.54157 177.48259 246.10662 177.72266 246.63477 C 177.97473 247.15091 178.19662 247.66188 178.38867 248.16602 C 178.56872 247.64987 178.77947 247.13333 179.01953 246.61719 C 179.2596 246.08904 179.53557 245.52957 179.84766 244.94141 L 183.51953 237.30859 C 183.60355 237.15255 183.70614 236.99589 183.82617 236.83984 C 183.9462 236.6838 184.08419 236.54581 184.24023 236.42578 C 184.40828 236.29374 184.59477 236.19116 184.79883 236.11914 C 185.01489 236.03512 185.24793 235.99414 185.5 235.99414 L 190.90234 235.99414 L 181.39648 252.25195 L 181.39648 262.22656 L 175.31055 262.22656 L 175.31055 252.25195 L 165.80273 235.99414 z M 110.34961 240.54883 L 110.34961 248.86719 L 113.51758 248.86719 C 115.10202 248.86719 116.24326 248.48863 116.93945 247.73242 C 117.63565 246.97621 117.98242 245.92083 117.98242 244.56445 C 117.98242 243.96429 117.89294 243.41792 117.71289 242.92578 C 117.53284 242.43365 117.25687 242.01411 116.88477 241.66602 C 116.52467 241.30592 116.0622 241.02994 115.49805 240.83789 C 114.94589 240.64584 114.28579 240.54883 113.51758 240.54883 L 110.34961 240.54883 z M 156.35547 241.39453 C 156.16342 242.12673 155.96578 242.80552 155.76172 243.42969 C 155.56967 244.05386 155.38317 244.59466 155.20312 245.05078 L 152.79102 252.19727 L 159.95703 252.19727 L 157.54492 245.01367 C 157.36487 244.55755 157.17281 244.02428 156.96875 243.41211 C 156.76469 242.78794 156.55953 242.11473 156.35547 241.39453 z "
       transform="matrix(0.26458334,0,0,0.26458334,0,191.16665)"
       id="ellipse2-7-2-4-9" />
  </g>
</svg>
