<?xml version="1.0" encoding="UTF-8" standalone="no"?>
<!-- Created with Inkscape (http://www.inkscape.org/) -->

<svg
   xmlns:dc="http://purl.org/dc/elements/1.1/"
   xmlns:cc="http://creativecommons.org/ns#"
   xmlns:rdf="http://www.w3.org/1999/02/22-rdf-syntax-ns#"
   xmlns:svg="http://www.w3.org/2000/svg"
   xmlns="http://www.w3.org/2000/svg"
   xmlns:sodipodi="http://sodipodi.sourceforge.net/DTD/sodipodi-0.dtd"
   xmlns:inkscape="http://www.inkscape.org/namespaces/inkscape"
   width="300"
   height="300"
   viewBox="0 0 79.374998 79.375002"
   version="1.1"
   id="svg1511"
   inkscape:version="0.92.5 (2060ec1f9f, 2020-04-08)"
   sodipodi:docname="splash.svg">
  <defs
     id="defs1505">
    <radialGradient
       gradientTransform="translate(607.02686,456.9016)"
       id="SVGID_1_"
       cx="964.32709"
       cy="687.80621"
       r="219.767"
       gradientUnits="userSpaceOnUse">
      <stop
         offset="0"
         style="stop-color:#7B51A1"
         id="stop382" />
      <stop
         offset="1"
         style="stop-color:#533273"
         id="stop384" />
    </radialGradient>
    <radialGradient
       id="SVGID_2_"
       cx="1236.002"
       cy="766.13281"
       r="205.7778"
       gradientTransform="matrix(-0.9865,-0.1635,-0.1635,0.9865,2830.9324,628.34904)"
       gradientUnits="userSpaceOnUse">
      <stop
         offset="0"
         style="stop-color:#7B51A1"
         id="stop511" />
      <stop
         offset="1"
         style="stop-color:#533273"
         id="stop513" />
    </radialGradient>
  </defs>
  <sodipodi:namedview
     id="base"
     pagecolor="#242424"
     bordercolor="#666666"
     borderopacity="1.0"
     inkscape:pageopacity="0"
     inkscape:pageshadow="2"
     inkscape:zoom="1.4142136"
     inkscape:cx="32.159472"
     inkscape:cy="134.91222"
     inkscape:document-units="px"
     inkscape:current-layer="layer1"
     showgrid="false"
     inkscape:window-width="1864"
     inkscape:window-height="1016"
     inkscape:window-x="56"
     inkscape:window-y="27"
     inkscape:window-maximized="1"
     units="px" />
  <metadata
     id="metadata1508">
    <rdf:RDF>
      <cc:Work
         rdf:about="">
        <dc:format>image/svg+xml</dc:format>
        <dc:type
           rdf:resource="http://purl.org/dc/dcmitype/StillImage" />
        <dc:title></dc:title>
      </cc:Work>
    </rdf:RDF>
  </metadata>
  <g
     inkscape:label="Layer 1"
     inkscape:groupmode="layer"
     id="layer1"
     transform="translate(0,-217.62498)">
    <path
       style="opacity:1;fill:#ffffff;fill-opacity:0.12264151;fill-rule:nonzero;stroke:none;stroke-width:0.52916664;stroke-linejoin:round;stroke-miterlimit:4;stroke-dasharray:none;stroke-dashoffset:0;stroke-opacity:1"
       d="M 39.687447,217.62504 A 39.687474,39.687474 0 0 0 4.229e-5,257.31244 39.687474,39.687474 0 0 0 39.687447,296.99996 39.687474,39.687474 0 0 0 79.374959,257.31244 39.687474,39.687474 0 0 0 39.687447,217.62504 Z m 0,10.81063 A 28.87677,28.87677 0 0 1 68.564219,257.31244 28.87677,28.87677 0 0 1 39.687447,286.18921 28.87677,28.87677 0 0 1 10.81068,257.31244 28.87677,28.87677 0 0 1 39.687447,228.43567 Z"
       id="path3593-9-3"
       inkscape:connector-curvature="0" />
    <path
       style="opacity:1;fill:#ffffff;fill-opacity:0.12264151;fill-rule:nonzero;stroke:none;stroke-width:0.52916664;stroke-linejoin:round;stroke-miterlimit:4;stroke-dasharray:none;stroke-dashoffset:0;stroke-opacity:1"
       d="m 39.687499,217.625 a 39.687474,39.687474 0 0 0 -9.735428,1.26366 v 11.26749 a 28.87677,28.87677 0 0 1 9.735428,-1.72038 28.87677,28.87677 0 0 1 9.73524,1.72833 V 218.87357 A 39.687474,39.687474 0 0 0 39.687499,217.625 Z M 1.2145962,247.72844 A 39.687474,39.687474 0 0 0 0,257.3125 39.687474,39.687474 0 0 0 1.3024031,267.19911 H 12.581418 a 28.87677,28.87677 0 0 1 -1.770646,-9.88661 28.87677,28.87677 0 0 1 1.673106,-9.58406 z m 65.6795198,0 a 28.87677,28.87677 0 0 1 1.670118,9.58406 28.87677,28.87677 0 0 1 -1.783751,9.88661 H 78.092474 A 39.687474,39.687474 0 0 0 79.375,257.3125 39.687474,39.687474 0 0 0 78.149879,247.72844 Z M 29.952071,284.4609 v 11.29034 A 39.687474,39.687474 0 0 0 39.687499,297 a 39.687474,39.687474 0 0 0 9.73524,-1.26366 v -11.26749 a 28.87677,28.87677 0 0 1 -9.73524,1.72038 28.87677,28.87677 0 0 1 -9.735428,-1.72833 z"
       id="path3593"
       inkscape:connector-curvature="0" />
    <path
       style="fill:#ffffff;stroke-width:1.00000012;fill-opacity:0.12264151"
       d="M 133.57422 68.855469 C 124.70842 68.855469 116.36084 71.227866 109.15234 75.455078 C 103.73729 73.587803 97.197281 71.755859 92.347656 71.755859 C 90.082929 71.755859 88.178411 72.116345 86.527344 72.861328 C 83.878118 74.056566 82.017409 76.206926 81.287109 78.916016 C 80.457734 81.99308 80.238729 87.313711 85.943359 101.25586 C 86.28877 102.10009 86.636724 102.92726 86.982422 103.73438 C 86.536623 105.18269 86.148245 106.66158 85.824219 108.17188 C 84.529107 114.21024 85.491156 127.55518 85.964844 133.01172 C 87.091442 145.99137 89.285629 159.97086 92.144531 172.375 C 95.82677 188.35159 100.52837 201.75138 106.11719 212.20117 C 113.35158 225.72776 122.10484 234.23265 132.13281 237.48047 C 137.22378 239.12933 142.75339 239.96484 148.56836 239.96484 C 156.9181 239.96484 165.77699 238.27398 174.90039 234.93945 C 183.10466 231.94085 191.44539 227.58631 199.02148 222.34766 C 206.38707 217.25421 213.01592 211.34472 218.19141 205.25586 C 223.79011 198.66886 227.54748 192.13185 229.35938 185.82812 C 231.42432 178.64313 229.5781 168.97038 223.71484 156.25586 C 219.10883 146.26793 212.05045 134.58675 203.30469 122.47461 C 201.7857 120.371 200.22838 118.27364 198.64453 116.19531 C 199.30683 114.00678 199.66719 111.69708 199.7168 109.29492 C 199.85978 102.37997 197.40697 95.376285 192.81055 89.574219 C 189.92475 85.931208 186.29498 82.939047 182.3125 80.921875 C 178.36788 78.923639 174.06661 77.867188 169.875 77.867188 C 167.69374 77.867188 165.56981 78.149171 163.54102 78.695312 C 160.49822 76.377668 157.7598 74.671484 155.34961 73.605469 C 148.22226 70.452625 140.89562 68.855469 133.57422 68.855469 z M 101.64453 137.75781 L 109.20898 137.75781 L 109.20898 146.32617 L 117.47656 146.32617 L 117.47656 137.75781 L 125.07422 137.75781 L 125.07422 162.24219 L 117.47656 162.24219 L 117.47656 152.33789 L 109.20898 152.33789 L 109.20898 162.24219 L 101.64453 162.24219 L 101.64453 137.75781 z M 130.08398 137.75781 L 150.35938 137.75781 L 150.35938 142.98633 L 137.66602 142.98633 L 137.66602 146.87695 L 149.44141 146.87695 L 149.44141 151.87109 L 137.66602 151.87109 L 137.66602 156.69727 L 150.72656 156.69727 L 150.72656 162.24219 L 130.08398 162.24219 L 130.08398 137.75781 z M 154.80078 137.75781 L 162.36719 137.75781 L 162.36719 156.21289 L 174.17383 156.21289 L 174.17383 162.24219 L 154.80078 162.24219 L 154.80078 137.75781 z M 177.58008 137.75781 L 190.15625 137.75781 C 192.8951 137.75781 194.94249 138.41026 196.30078 139.71289 C 197.67021 141.01552 198.35547 142.86859 198.35547 145.27344 C 198.35547 147.74509 197.60908 149.67666 196.11719 151.06836 C 194.63642 152.46005 192.37091 153.15625 189.32031 153.15625 L 185.17969 153.15625 L 185.17969 162.24219 L 177.58008 162.24219 L 177.58008 137.75781 z M 185.17969 142.73633 L 185.17969 148.19727 L 187.0332 148.19727 C 188.4917 148.19727 189.51539 147.94632 190.10547 147.44531 C 190.69555 146.93317 190.99023 146.28072 190.99023 145.49023 C 190.99023 144.72202 190.7348 144.07152 190.22266 143.53711 C 189.71051 143.0027 188.74795 142.73633 187.33398 142.73633 L 185.17969 142.73633 z "
       id="path554"
       transform="matrix(0.26458333,0,0,0.26458333,0,217.62498)" />
  </g>
</svg>
