<?xml version="1.0" encoding="UTF-8" standalone="no"?>
<!-- Created with Inkscape (http://www.inkscape.org/) -->

<svg
   xmlns:dc="http://purl.org/dc/elements/1.1/"
   xmlns:cc="http://creativecommons.org/ns#"
   xmlns:rdf="http://www.w3.org/1999/02/22-rdf-syntax-ns#"
   xmlns:svg="http://www.w3.org/2000/svg"
   xmlns="http://www.w3.org/2000/svg"
   xmlns:xlink="http://www.w3.org/1999/xlink"
   xmlns:sodipodi="http://sodipodi.sourceforge.net/DTD/sodipodi-0.dtd"
   xmlns:inkscape="http://www.inkscape.org/namespaces/inkscape"
   width="800"
   height="800"
   viewBox="0 0 211.66667 211.66667"
   version="1.1"
   id="svg1511"
   inkscape:version="0.92.5 (2060ec1f9f, 2020-04-08)"
   sodipodi:docname="icon.svg"
   inkscape:export-filename="./icon-512.png"
   inkscape:export-xdpi="61.439999"
   inkscape:export-ydpi="61.439999">
  <defs
     id="defs1505">
    <linearGradient
       inkscape:collect="always"
       id="linearGradient3681">
      <stop
         style="stop-color:#2e3436;stop-opacity:1;"
         offset="0"
         id="stop3677" />
      <stop
         style="stop-color:#2e3436;stop-opacity:0;"
         offset="1"
         id="stop3679" />
    </linearGradient>
    <radialGradient
       gradientTransform="translate(607.02686,456.9016)"
       id="SVGID_1_"
       cx="964.32709"
       cy="687.80621"
       r="219.767"
       gradientUnits="userSpaceOnUse">
      <stop
         offset="0"
         style="stop-color:#7B51A1"
         id="stop382" />
      <stop
         offset="1"
         style="stop-color:#533273"
         id="stop384" />
    </radialGradient>
    <radialGradient
       id="SVGID_2_"
       cx="1236.002"
       cy="766.13281"
       r="205.7778"
       gradientTransform="matrix(-0.9865,-0.1635,-0.1635,0.9865,2830.9324,628.34904)"
       gradientUnits="userSpaceOnUse">
      <stop
         offset="0"
         style="stop-color:#7B51A1"
         id="stop511" />
      <stop
         offset="1"
         style="stop-color:#533273"
         id="stop513" />
    </radialGradient>
    <radialGradient
       inkscape:collect="always"
       xlink:href="#linearGradient3681"
       id="radialGradient3683"
       cx="426.73538"
       cy="150.34534"
       fx="426.73538"
       fy="150.34534"
       r="103.23803"
       gradientTransform="matrix(0.97547852,0,0,0.97547852,323.49723,47.107212)"
       gradientUnits="userSpaceOnUse" />
  </defs>
  <sodipodi:namedview
     id="base"
     pagecolor="#ffffff"
     bordercolor="#666666"
     borderopacity="1.0"
     inkscape:pageopacity="0.0"
     inkscape:pageshadow="2"
     inkscape:zoom="0.087499999"
     inkscape:cx="-1457.8483"
     inkscape:cy="937.26909"
     inkscape:document-units="px"
     inkscape:current-layer="layer1"
     showgrid="false"
     inkscape:window-width="1864"
     inkscape:window-height="1016"
     inkscape:window-x="56"
     inkscape:window-y="27"
     inkscape:window-maximized="1"
     units="px" />
  <metadata
     id="metadata1508">
    <rdf:RDF>
      <cc:Work
         rdf:about="">
        <dc:format>image/svg+xml</dc:format>
        <dc:type
           rdf:resource="http://purl.org/dc/dcmitype/StillImage" />
        <dc:title></dc:title>
      </cc:Work>
    </rdf:RDF>
  </metadata>
  <g
     inkscape:label="Layer 1"
     inkscape:groupmode="layer"
     id="layer1"
     transform="translate(0,-85.333342)">
    <g
       id="g3774"
       transform="matrix(1.028905,0,0,1.028905,8.7836321,49.383039)"
       style="stroke-width:0.97190708"
       inkscape:export-filename="./icon.png"
       inkscape:export-xdpi="7.6799998"
       inkscape:export-ydpi="7.6799998">
      <rect
         rx="53.634228"
         ry="53.634228"
         y="40.905064"
         x="-5.5940475"
         height="193.59372"
         width="198.99031"
         id="rect3732"
         style="opacity:1;fill:none;fill-opacity:1;fill-rule:nonzero;stroke:#e9b96e;stroke-width:5.14300823;stroke-linejoin:round;stroke-miterlimit:4;stroke-dasharray:none;stroke-dashoffset:0;stroke-opacity:1" />
      <g
         style="stroke-width:0.97547847"
         transform="matrix(0.99633879,0,0,0.99633879,0.34533708,0.50451615)"
         id="g3730">
        <ellipse
           style="opacity:1;fill:#ffffff;fill-opacity:1;fill-rule:nonzero;stroke:none;stroke-width:0.51619065;stroke-linejoin:round;stroke-miterlimit:4;stroke-dasharray:none;stroke-dashoffset:0;stroke-opacity:1"
           id="path3723"
           cx="98.110512"
           cy="133.27771"
           rx="96.767769"
           ry="97.270454" />
        <g
           style="stroke-width:0.97547847"
           id="g3688"
           transform="translate(-332.41208,-12.544839)">
          <path
             inkscape:connector-curvature="0"
             id="path3593-9-3"
             d="M 426.73523,47.1073 A 103.23807,103.23807 0 0 0 323.49734,150.3452 103.23807,103.23807 0 0 0 426.73523,253.58338 103.23807,103.23807 0 0 0 529.9734,150.3452 103.23807,103.23807 0 0 0 426.73523,47.1073 Z m 0,28.12145 a 75.116447,75.116447 0 0 1 75.11645,75.11645 75.116447,75.116447 0 0 1 -75.11645,75.11644 75.116447,75.116447 0 0 1 -75.11644,-75.11644 75.116447,75.116447 0 0 1 75.11644,-75.11645 z"
             style="opacity:1;fill:#b2cbe4;fill-opacity:1;fill-rule:nonzero;stroke:none;stroke-width:0.51619065;stroke-linejoin:round;stroke-miterlimit:4;stroke-dasharray:none;stroke-dashoffset:0;stroke-opacity:1" />
          <path
             inkscape:connector-curvature="0"
             id="path3593-9"
             d="M 426.73523,47.1073 A 103.23807,103.23807 0 0 0 323.49734,150.3452 103.23807,103.23807 0 0 0 426.73523,253.58338 103.23807,103.23807 0 0 0 529.9734,150.3452 103.23807,103.23807 0 0 0 426.73523,47.1073 Z m 0,28.12145 a 75.116447,75.116447 0 0 1 75.11645,75.11645 75.116447,75.116447 0 0 1 -75.11645,75.11644 75.116447,75.116447 0 0 1 -75.11644,-75.11644 75.116447,75.116447 0 0 1 75.11644,-75.11645 z"
             style="opacity:1;fill:url(#radialGradient3683);fill-opacity:1;fill-rule:nonzero;stroke:none;stroke-width:0.51619065;stroke-linejoin:round;stroke-miterlimit:4;stroke-dasharray:none;stroke-dashoffset:0;stroke-opacity:1" />
          <path
             inkscape:connector-curvature="0"
             id="path3593"
             d="m 426.73537,47.107202 a 103.23807,103.23807 0 0 0 -25.32454,3.287138 v 29.309833 a 75.116446,75.116446 0 0 1 25.32454,-4.475174 75.116446,75.116446 0 0 1 25.32404,4.495854 V 50.355065 A 103.23807,103.23807 0 0 0 426.73537,47.107202 Z M 326.65673,125.41456 a 103.23807,103.23807 0 0 0 -3.1595,24.93078 103.23807,103.23807 0 0 0 3.38791,25.71781 h 29.33983 a 75.116446,75.116446 0 0 1 -4.60594,-25.71781 75.116446,75.116446 0 0 1 4.35221,-24.93078 z m 170.85055,0 a 75.116446,75.116446 0 0 1 4.34444,24.93078 75.116446,75.116446 0 0 1 -4.64003,25.71781 h 29.42561 a 103.23807,103.23807 0 0 0 3.33621,-25.71781 103.23807,103.23807 0 0 0 -3.18688,-24.93078 z m -96.09645,95.55127 v 29.36927 a 103.23807,103.23807 0 0 0 25.32454,3.24838 103.23807,103.23807 0 0 0 25.32404,-3.28714 v -29.30983 a 75.116446,75.116446 0 0 1 -25.32404,4.47517 75.116446,75.116446 0 0 1 -25.32454,-4.49585 z"
             style="opacity:1;fill:#a40000;fill-opacity:1;fill-rule:nonzero;stroke:none;stroke-width:0.51619065;stroke-linejoin:round;stroke-miterlimit:4;stroke-dasharray:none;stroke-dashoffset:0;stroke-opacity:1" />
        </g>
      </g>
      <g
         transform="matrix(0.26458333,0,0,0.26458333,-230.29515,33.934102)"
         id="g618"
         style="stroke-width:0.97190708">
        <g
           id="g558"
           style="stroke-width:0.97190708">
          <path
             id="path554"
             d="m 1020.482,253.249 c -0.461,-0.903 -11.414,-22.394 -21.677,-47.478 -19.644,-48.011 -18.814,-65.072 -16.48,-73.729 1.733,-6.43 7.768,-17.216 28.713,-17.216 32.045,0 89.901,25.383 92.348,26.463 l 13.405,5.919 -87.268,123.732 z"
             inkscape:connector-curvature="0"
             style="fill:#969436;stroke-width:0.97190708" />
          <path
             id="path556"
             d="m 1011.038,126.826 c 29.882,0 87.501,25.441 87.501,25.441 l -67.371,95.521 c 0,0 -44.265,-86.623 -37.257,-112.623 1.624,-6.025 8.112,-8.339 17.127,-8.339 m 0,-24 c -8.252,0 -15.188,1.319 -21.204,4.033 -9.653,4.355 -16.435,12.189 -19.096,22.06 -3.022,11.212 -3.825,30.595 16.961,81.396 10.452,25.546 21.627,47.473 22.097,48.394 l 18.082,35.384 22.902,-32.473 67.371,-95.521 16.893,-23.95 -26.811,-11.838 c -6.372,-2.812 -63.231,-27.485 -97.195,-27.485 z"
             inkscape:connector-curvature="0"
             style="fill:#332e15;stroke-width:0.97190708" />
        </g>
        <g
           id="g564"
           style="stroke-width:0.97190708">
          <path
             id="path560"
             d="m 1215.887,703.731 c -19.931,0 -38.836,-2.85 -56.189,-8.471 C 1083.74,670.66 1042.888,557.422 1021.993,466.759 999.211,367.915 993.159,265.273 999,238.038 c 16.9,-78.769 83.622,-133.781 162.257,-133.781 24.995,0 50.056,5.479 74.486,16.285 38.184,16.89 108.034,88.488 169.862,174.114 31.421,43.516 56.732,85.388 73.196,121.089 19.828,42.996 26.534,76.444 19.933,99.415 -11.979,41.674 -51.543,88.968 -105.835,126.511 -57.032,39.438 -121.556,62.06 -177.012,62.06 0,0 0,0 0,0 z"
             inkscape:connector-curvature="0"
             style="fill:#b2af36;stroke-width:0.97190708" />
          <path
             id="path562"
             d="m 1161.257,116.257 c 22.461,0 46.013,4.812 69.632,15.259 73.539,32.527 280.99,294.468 256.313,380.329 -23.004,80.034 -156.229,179.886 -271.314,179.886 -18.113,0 -35.778,-2.474 -52.492,-7.887 -132.1,-42.783 -162.904,-395.533 -152.661,-443.29 15.734,-73.344 77.402,-124.297 150.522,-124.297 m 10e-4,-24 c -84.346,0 -155.893,58.912 -173.99,143.263 -4.719,22.002 -1.215,70.623 0.511,90.505 4.105,47.294 12.103,98.232 22.52,143.429 13.417,58.214 30.545,107.036 50.909,145.112 26.36,49.287 58.253,80.277 94.792,92.111 18.55,6.008 38.699,9.055 59.887,9.055 30.424,0 62.705,-6.161 95.948,-18.311 29.894,-10.926 60.285,-26.791 87.89,-45.879 26.838,-18.559 50.992,-40.095 69.85,-62.281 20.4,-24.001 34.091,-47.816 40.693,-70.785 7.524,-26.18 0.796,-61.427 -20.568,-107.755 -16.783,-36.393 -42.498,-78.956 -74.365,-123.089 -29.061,-40.246 -61.957,-79.917 -92.631,-111.705 -33.559,-34.778 -61.184,-57.104 -82.106,-66.358 -25.97,-11.488 -52.663,-17.312 -79.34,-17.312 z"
             inkscape:connector-curvature="0"
             style="fill:#332e15;stroke-width:0.97190708" />
        </g>
        <g
           id="g568"
           style="stroke-width:0.97190708">
          <path
             id="path566"
             d="m 1010.733,240.554 c 20.569,-95.873 119.642,-153.497 220.155,-109.038 41.754,18.469 126.678,110.897 187.771,203.061 -33.113,115.19 -209.441,282.709 -344.125,245.894 -1.288,-0.353 -2.563,-0.737 -3.828,-1.145 -54.121,-121.385 -67.164,-305.243 -59.973,-338.772 z"
             inkscape:connector-curvature="0"
             style="opacity:0.15;fill:#ffffff;stroke-width:0.97190708" />
        </g>
        <path
           id="path570"
           d="m 1212.482,630.217 c 54.826,16.614 193.748,-38.142 274.953,-119.272 -0.078,0.3 -0.15,0.605 -0.234,0.9 -26.625,92.631 -200.896,211.809 -323.807,171.999 -68.543,-22.199 -109.811,-127.848 -132.227,-231.043 45.697,72.018 65.815,142.416 181.315,177.416 z"
           inkscape:connector-curvature="0"
           style="fill-opacity:0.15;stroke-width:0.97190708" />
        <path
           id="path572"
           d="m 1010.733,240.554 c 20.569,-95.873 119.642,-153.497 220.155,-109.038 6.615,2.925 14.316,7.716 22.832,14.059 0,0 -52.686,-36.315 -122.4,-15.924 -14.045,4.107 -39.488,12.467 -53.318,24.333 -97.912,84 -50.896,279.115 -50.896,279.115 v -10e-4 C 1009.8,344.566 1006.146,261.95 1010.735,240.554 Z"
           inkscape:connector-curvature="0"
           style="fill:#ffffff;fill-opacity:0.65;stroke-width:0.97190708" />
        <g
           id="g580"
           style="stroke-width:0.97190708">
          <g
             id="g578"
             style="stroke-width:0.97190708">
            <g
               id="g576"
               style="stroke-width:0.97190708">
              <path
                 id="path574"
                 d="m 1131.376,631.877 c 7.917,8.448 18.148,16.278 29.651,22.593 5.771,3.154 11.832,5.954 18.402,8.131 l 1.305,0.415 1.197,0.361 2.401,0.672 c 1.603,0.435 3.209,0.826 4.813,1.19 3.21,0.726 6.418,1.303 9.589,1.762 12.694,1.854 26.271,1.679 39.087,-0.157 12.841,-1.811 24.943,-5.143 35.417,-9.081 12.264,-4.624 23.278,-10.092 30.626,-15.623 -8.614,0.077 -21.716,1.523 -34.41,2.988 -10.672,1.244 -22.238,2.662 -33.85,3.274 -11.611,0.633 -23.254,0.369 -34.031,-1.199 -2.693,-0.391 -5.408,-0.856 -8.125,-1.418 -1.357,-0.286 -2.719,-0.579 -4.076,-0.911 l -2.038,-0.503 -1.924,-0.518 c -5.169,-1.48 -10.554,-3.558 -15.784,-5.849 -10.498,-4.615 -20.503,-10.16 -29.248,-15.766 -5.211,-3.336 -10.318,-6.941 -14.823,-10.553 -4.518,-3.598 -8.409,-7.227 -11.478,-10.253 0.715,4.544 2.651,9.761 5.656,14.996 2.994,5.25 7.018,10.514 11.643,15.449 z"
                 inkscape:connector-curvature="0"
                 style="fill:#383419;stroke-width:0.97190708" />
            </g>
          </g>
        </g>
        <g
           id="g616"
           style="stroke-width:0.97190708">
          <g
             id="g586"
             style="stroke-width:0.97190708">
            <path
               id="path582"
               d="m 1310.234,314.628 c -25.451,0 -48.451,-11.342 -64.764,-31.934 -16.664,-21.037 -24.571,-52.615 -20.637,-82.409 2.896,-21.937 11.645,-39.325 24.633,-48.96 12.546,-9.309 27.78,-14.229 44.057,-14.229 27.538,0 55.263,14.246 74.164,38.108 31.545,39.82 29.704,94.006 -4.104,120.789 -15.17,12.017 -34.116,18.635 -53.347,18.635 0,0 0,0 0,0 z"
               inkscape:connector-curvature="0"
               style="fill:#e3decc;stroke-width:0.97190708" />
            <path
               id="path584"
               d="m 1293.523,149.096 c 22.986,0 47.353,11.586 64.758,33.56 27.48,34.689 26.518,81.222 -2.148,103.931 -12.983,10.285 -29.336,16.042 -45.897,16.042 -20.009,0 -40.323,-8.405 -55.358,-27.385 -27.479,-34.69 -23.717,-95.395 1.74,-114.281 10.766,-7.99 23.603,-11.867 36.905,-11.867 m 0,-24 c -18.87,0 -36.578,5.738 -51.207,16.592 -15.619,11.588 -26.054,31.84 -29.379,57.026 -2.025,15.336 -1.232,31.529 2.295,46.827 3.894,16.891 11.097,32.315 20.831,44.604 9.541,12.044 21.104,21.331 34.366,27.604 12.457,5.892 25.85,8.879 39.805,8.879 21.927,0 43.52,-7.539 60.801,-21.229 10.017,-7.935 17.832,-17.96 23.229,-29.798 5.039,-11.051 7.728,-23.161 7.993,-35.992 0.521,-25.196 -8.415,-50.716 -25.163,-71.857 -10.515,-13.274 -23.743,-24.177 -38.254,-31.527 -14.373,-7.281 -30.044,-11.129 -45.317,-11.129 z"
               inkscape:connector-curvature="0"
               style="fill:#332e15;stroke-width:0.97190708" />
          </g>
          <path
             id="path588"
             d="m 1339.061,267.518 c 19.188,-11.998 32.578,-50.792 22.346,-80.667 24.219,34.161 22.254,77.929 -5.273,99.736 -28.668,22.709 -73.775,23.347 -101.256,-11.343 -1.604,-2.025 -3.094,-4.141 -4.488,-6.329 29.833,17.431 54.844,19.752 88.671,-1.397 z"
             inkscape:connector-curvature="0"
             style="fill-opacity:0.1;stroke-width:0.97190708" />
          <g
             id="g594"
             style="stroke-width:0.97190708">
            <path
               id="path590"
               d="m 1117.441,414.448 c -38.642,-0.003 -73.895,-28.73 -85.729,-69.859 -6.973,-24.236 -5.382,-49.916 4.48,-72.308 10.027,-22.768 27.839,-39.296 48.866,-45.348 5.551,-1.597 11.391,-2.407 17.358,-2.407 39.424,0 80.283,34.681 93.021,78.956 6.911,24.017 4.436,48.369 -6.969,68.57 -10.872,19.259 -28.733,33.281 -50.292,39.485 -6.712,1.932 -13.687,2.911 -20.73,2.911 -10e-4,0 0,0 0,0 z"
               inkscape:connector-curvature="0"
               style="fill:#e3decc;stroke-width:0.97190708" />
            <path
               id="path592"
               d="m 1102.417,236.527 c 33.678,0 70.246,31.195 81.489,70.273 12.836,44.608 -12.184,82.597 -49.047,93.205 -5.729,1.648 -11.573,2.443 -17.418,2.443 -31.764,0 -63.355,-23.502 -74.197,-61.178 -12.835,-44.608 8.271,-92.197 45.133,-102.805 4.57,-1.314 9.274,-1.938 14.04,-1.938 m 0,-24 c -7.09,0 -14.047,0.967 -20.677,2.875 -49.903,14.361 -78.094,75.041 -61.561,132.505 6.591,22.904 19.495,42.551 37.319,56.818 17.501,14.009 38.789,21.724 59.942,21.724 8.171,0 16.264,-1.137 24.055,-3.379 24.602,-7.079 44.994,-23.102 57.424,-45.117 13,-23.027 15.858,-50.653 8.051,-77.789 -6.702,-23.292 -20.819,-45.083 -39.752,-61.355 -19.718,-16.949 -42.732,-26.282 -64.801,-26.282 z"
               inkscape:connector-curvature="0"
               style="fill:#332e15;stroke-width:0.97190708" />
          </g>
          <g
             id="g598"
             style="stroke-width:0.97190708">
            <path
               id="path596"
               d="m 1106.895,374.799 c 41.234,-11.865 69.949,-51.821 56.738,-97.736 -1.324,-4.606 -3.027,-9.095 -5.051,-13.435 11.492,11.878 20.623,26.833 25.324,43.172 12.836,44.608 -12.184,82.597 -49.047,93.205 -26.695,7.681 -56.029,-3.18 -75.062,-26.691 15.01,5.225 31.4,6.003 47.098,1.485 z"
               inkscape:connector-curvature="0"
               style="opacity:0.1;stroke-width:0.97190708" />
          </g>
          <path
             id="path600"
             d="m 1052.709,340.779 c 13.018,22.693 40.189,31.557 60.688,19.799 20.494,-11.76 26.555,-39.689 13.539,-62.382 -13.02,-22.694 -40.192,-31.557 -60.687,-19.799 -20.497,11.76 -26.561,39.689 -13.54,62.382 z"
             inkscape:connector-curvature="0"
             style="fill:#212121;stroke-width:0.97190708" />
          <ellipse
             id="ellipse602"
             ry="43.556"
             rx="39.34"
             cy="220.41299"
             cx="1286.098"
             transform="matrix(-0.9553,0.2956,-0.2956,-0.9553,2579.8782,50.8219)"
             style="fill:#212121;stroke-width:0.97190708" />
          <path
             id="path604"
             d="m 1045.89,331.963 c 0.532,6.009 4.521,12.912 10.953,12.341 6.432,-0.571 12.869,-8.399 12.336,-14.407 -0.533,-6.01 -6.18,-10.417 -12.61,-9.848 -6.431,0.571 -11.213,5.904 -10.679,11.914 z"
             inkscape:connector-curvature="0"
             style="fill:#ffffff;fill-opacity:0.75;stroke-width:0.97190708" />
          <path
             id="path606"
             d="m 1072.838,361.929 c 3.35,-2.258 6.105,-6.835 3.689,-10.421 -2.418,-3.587 -9.094,-4.827 -12.447,-2.568 -3.35,2.26 -4.105,6.998 -1.689,10.585 2.418,3.587 7.093,4.663 10.447,2.404 z"
             inkscape:connector-curvature="0"
             style="fill:#ffffff;stroke-width:0.97190708" />
          <path
             id="path608"
             d="m 1251.744,238.587 c 5.539,-0.289 12.016,-3.722 11.709,-9.649 -0.311,-5.928 -7.285,-12.107 -12.822,-11.819 -5.543,0.288 -9.781,5.328 -9.475,11.256 0.311,5.927 5.047,10.5 10.588,10.212 z"
             inkscape:connector-curvature="0"
             style="fill:#ffffff;fill-opacity:0.75;stroke-width:0.97190708" />
          <path
             id="path610"
             d="m 1261.048,241.543 c -3.711,0.204 -8.043,2.518 -7.824,6.489 0.215,3.97 4.902,8.097 8.613,7.894 3.711,-0.204 6.541,-3.589 6.322,-7.559 -0.217,-3.972 -3.4,-7.028 -7.111,-6.824 z"
             inkscape:connector-curvature="0"
             style="fill:#ffffff;stroke-width:0.97190708" />
          <path
             id="path612"
             d="m 1251.715,172.865 c -12.117,18.451 -16.211,50.396 -2.334,59.511 13.875,9.113 41.861,-5.598 53.98,-24.048 12.117,-18.451 10.693,-40.795 -3.184,-49.908 -13.876,-9.114 -36.345,-4.005 -48.462,14.445 z"
             inkscape:connector-curvature="0"
             style="fill:#ffffff;fill-opacity:0.5;stroke-width:0.97190708" />
          <path
             id="path614"
             d="m 1055.486,269.933 c -11.934,20.832 -15.15,55.273 -0.531,63.648 14.621,8.376 43.064,-9.999 54.998,-30.83 11.934,-20.832 9.756,-44.509 -4.865,-52.883 -14.619,-8.376 -37.67,-0.767 -49.602,20.065 z"
             inkscape:connector-curvature="0"
             style="fill:#ffffff;fill-opacity:0.5;stroke-width:0.97190708" />
        </g>
      </g>
    </g>
  </g>
</svg>
